<?xml version="1.0" encoding="UTF-8"?><svg id="a" xmlns="http://www.w3.org/2000/svg" xmlns:xlink="http://www.w3.org/1999/xlink" viewBox="0 0 518.59 212.88"><defs><style>.j{fill:url(#e);}.k{fill:url(#g);}.l{fill:url(#i);}.m{fill:url(#c);}.n{fill:none;}.o{fill:#fff;}.p{clip-path:url(#b);}.q{clip-path:url(#f);}.r{clip-path:url(#d);}.s{clip-path:url(#h);}</style><clipPath id="b"><path class="n" d="M491.06,153.89c-.38,0-.73-.09-1.1-.11v.06h-46.6s0,.03,0,.05H240.53c-3.47,14.73-10.4,28.11-19.94,39.22h245.22v-.09c.6,.02,1.19,.09,1.79,.09,24.66,0,44.65-19.99,44.65-44.65,0-1.96-.15-3.88-.39-5.76-4.47,6.75-12.11,11.2-20.81,11.2"/></clipPath><linearGradient id="c" x1="-70.29" y1="508.92" x2="-69.29" y2="508.92" gradientTransform="translate(38691.59 279321.86) scale(548.52 -548.52)" gradientUnits="userSpaceOnUse"><stop offset="0" stop-color="#44a8b1"/><stop offset=".47" stop-color="#4764af"/><stop offset="1" stop-color="#7f3f98"/></linearGradient><clipPath id="d"><path class="n" d="M38.42,24.06c-12.33,10.08-21.1,22.72-26.26,37.83-2.24,6.56-3.71,13.28-4.36,20.17-.24,2.53-.36,5.05-.37,7.57v.4c.02,6.96,.93,13.86,2.68,20.68,4.48,17.38,13.64,31.82,27.37,43.36,10.52,8.85,22.57,14.53,36.06,17.1,3.84,.73,7.75,1.3,11.65,1.55,10.8,.68,21.32-.93,31.52-4.53,2.04-.72,4.05-1.56,6.24-2.41-17.98-7.36-31.81-21.42-39.23-38.46-1.86-.31-3.71-.75-5.56-1.34-5.21-1.66-9.71-4.44-13.64-8.21-13.54-12.98-15.14-35-4.69-50.03,7.04-10.12,16.61-16.11,29.05-17.04,2.09-.16,4.16-.09,6.2,.16,12.31-14.44,29.93-23.7,49.06-25.43-1.35-1.17-2.71-2.32-4.14-3.4-8.07-6.13-16.94-10.67-26.7-13.44-6.96-1.98-14.03-3.28-21.28-3.32-.18,0-.37,0-.55,0-19.87,0-37.63,6.21-53.05,18.82"/></clipPath><linearGradient id="e" x1="-69.94" y1="509.26" x2="-68.94" y2="509.26" gradientTransform="translate(23943.45 174421.3) scale(342.32 -342.32)" xlink:href="#c"/><clipPath id="f"><path class="n" d="M161.77,69.35c-2.28,5.34-4.59,10.67-6.82,16.04-.37,.88-.77,1.16-1.74,1.07-5.96-.58-11.93-1.1-17.89-1.63-.25-.02-.51-.02-.91-.04,3.58,3.13,7.04,6.16,10.75,9.42-10.61,4.26-21.26,6.95-32.54,6.35-11.34-.6-21.44-4.78-30.95-10.78,.84,.88,1.66,1.78,2.52,2.65,.86,.87,1.72,1.75,2.64,2.55,4.26,3.73,8.95,6.75,14.21,8.88,8.53,3.45,17.4,4.3,26.49,3.41,6.29-.62,12.36-2.21,18.38-4.04,.44-.13,.88-.26,1.6-.47-1.98,4.65-3.86,9.08-5.74,13.52,.06,.04,.11,.08,.17,.12,3.56-2.13,7.13-4.26,10.69-6.39,1.84-1.1,3.7-2.17,5.51-3.32,.62-.39,1.02-.33,1.55,.13,3.81,3.37,7.65,6.73,11.48,10.08,.89,.78,1.81,1.54,2.85,2.42-.04-.36-.06-.59-.11-.81-1.34-5.9-2.67-11.8-4.06-17.69-.19-.8,.01-1.16,.69-1.56,5.17-3.06,10.32-6.16,15.47-9.25,.21-.13,.41-.28,.81-.54-.77-.08-1.33-.14-1.88-.19-5.73-.51-11.46-1.04-17.2-1.52-.69-.06-.95-.3-1.1-.96-1.33-5.9-2.69-11.8-4.04-17.7-.06-.25-.12-.51-.24-1.03-.26,.57-.43,.93-.58,1.29m-7.6-31.61c-13.72,.16-26.1,4.54-36.9,13.04-10.91,8.58-18.64,19.36-22.02,33.01-.05,.19-.12,.37-.28,.84-1.95-1.18-3.88-2.23-5.67-3.47-1.81-1.25-3.49-2.68-5.28-4.07,1.09,2.16,2.47,4.06,4.04,5.84,5.49,6.23,12.69,8.68,20.69,9.28,7.3,.55,14.46-.48,21.57-1.99,.12-.02,.23-.1,.54-.23-4.95-4.33-9.81-8.57-14.67-12.82,.02-.08,.04-.16,.05-.24,11.4,1.01,22.79,2.03,34.25,3.05,4.5-10.56,9-21.08,13.59-31.86,.18,.61,.3,.96,.38,1.32,2.37,10.35,4.75,20.69,7.07,31.05,.24,1.08,.62,1.46,1.76,1.55,10.05,.84,20.1,1.76,30.15,2.66,1.35,.12,1.45,.22,1.68,1.51-.33,.05-.7,.02-.95,.17-8.96,5.34-17.9,10.72-26.86,16.05-.63,.38-.55,.77-.43,1.32,2.42,10.54,4.83,21.08,7.25,31.62,.07,.31,.13,.63,.23,1.14-.34-.21-.51-.28-.64-.39-3.73-3.27-7.46-6.54-11.2-9.8-4.51-3.94-9.04-7.85-13.51-11.82-.65-.57-1.06-.48-1.71-.1-9,5.41-18,10.79-27.01,16.18-.5,.3-1,.59-1.51,.88-.07-.06-.13-.12-.2-.18,2.31-5.42,4.62-10.85,6.94-16.3-2.68,.56-5.25,1.17-7.85,1.61-8.34,1.4-16.66,1.48-24.91-.66-6.53-1.7-12.42-4.64-17.05-9.6-7.42-7.95-11.16-17.27-9.46-28.28,.9-5.84,3.94-10.57,8.29-14.51,3.63-3.29,7.82-5.6,12.35-7.37,.17-.07,.34-.15,.51-.22-.03-.08-.07-.16-.1-.24-2.23,.94-4.48,1.81-6.68,2.82-3.8,1.75-7.35,3.94-10.44,6.76-8.67,7.88-11.34,17.55-8.35,28.81,1.42,5.38,4.28,9.97,8,14.08,4.5,4.97,9.97,8.62,15.81,11.79,.64,.35,1.07,.76,1.33,1.47,2.94,8.09,7.44,15.2,13.35,21.46,20.79,21.97,55.02,25.83,79.83,8.65,18.16-12.58,27.38-30.15,27.43-52.27,.03-14.06-4.44-26.78-13.25-37.72-12.66-15.72-29.17-23.79-49.32-23.79-.29,0-.58,0-.87,0"/></clipPath><linearGradient id="g" x1="-70" y1="507.62" x2="-69" y2="507.62" gradientTransform="translate(25367.26 -184093.87) scale(362.86)" xlink:href="#c"/><clipPath id="h"><path class="n" d="M149.82,173.1c-5.16-.45-10.13-1.43-14.9-2.84-7.14,6.67-15.37,12.15-24.36,16.2,10.21,11.7,24.83,19.64,41.6,21.09,1.81,.16,3.61,.24,5.39,.24h.19c31.88-.04,59-24.25,61.83-56.35,.37-4.18,.3-8.3-.15-12.32-14.55,22.52-40.88,36.47-69.6,33.98"/></clipPath><linearGradient id="i" x1="-69.65" y1="508.85" x2="-68.65" y2="508.85" gradientTransform="translate(20489.2 149481.73) scale(293.42 -293.42)" xlink:href="#c"/></defs><path class="o" d="M243.85,62.47v-.14c0-1.19,.19-2.29,.57-3.32,.38-1.02,.9-1.92,1.57-2.71,.66-.78,1.46-1.4,2.39-1.85,.93-.45,1.94-.68,3.03-.68,1.66,0,3.04,.36,4.14,1.07,1.09,.71,2.12,1.71,3.07,2.99l9.2-6.85c-1.66-2.61-3.83-4.71-6.49-6.28-2.66-1.57-5.99-2.35-9.98-2.35-3.04,0-5.84,.53-8.38,1.6-2.54,1.07-4.72,2.52-6.52,4.35-1.81,1.83-3.22,3.97-4.24,6.42-1.02,2.45-1.53,5.03-1.53,7.74v.14c0,2.71,.51,5.29,1.53,7.74,1.02,2.45,2.43,4.58,4.21,6.38,1.78,1.81,3.91,3.24,6.38,4.31,2.47,1.07,5.16,1.6,8.06,1.6,4.23,0,7.7-.81,10.41-2.42,2.71-1.61,4.97-3.75,6.78-6.42l-9.06-6.56c-1.09,1.24-2.2,2.21-3.32,2.92-1.12,.71-2.48,1.07-4.1,1.07-1.14,0-2.19-.23-3.14-.68-.95-.45-1.76-1.07-2.42-1.85-.67-.79-1.19-1.71-1.57-2.78-.38-1.07-.57-2.22-.57-3.46m50.13,5.28c0,1.95-.62,3.49-1.85,4.63-1.24,1.14-2.85,1.71-4.85,1.71-1.38,0-2.52-.37-3.42-1.11-.9-.74-1.35-1.77-1.35-3.1v-.14c0-1.43,.53-2.58,1.6-3.46,1.07-.88,2.6-1.32,4.6-1.32,1,0,1.96,.1,2.89,.29,.93,.19,1.72,.43,2.39,.71v1.78Zm-.21,13.98h13.41v-22.18c0-2.71-.32-5.07-.96-7.1-.64-2.02-1.7-3.74-3.17-5.17-1.52-1.52-3.48-2.68-5.88-3.49-2.4-.81-5.34-1.21-8.81-1.21s-6.22,.27-8.66,.82c-2.45,.55-4.77,1.27-6.95,2.18l2.78,9.55c1.71-.66,3.4-1.19,5.06-1.57,1.66-.38,3.52-.57,5.56-.57,2.61,0,4.55,.55,5.81,1.64,1.26,1.09,1.89,2.64,1.89,4.63v.64c-1.1-.38-2.46-.72-4.1-1.03-1.64-.31-3.36-.46-5.17-.46-2.28,0-4.35,.26-6.2,.79-1.85,.52-3.43,1.28-4.74,2.28-1.31,1-2.33,2.26-3.07,3.78-.74,1.52-1.11,3.28-1.11,5.28v.14c0,1.95,.33,3.66,1,5.13,.67,1.47,1.58,2.71,2.75,3.71,1.16,1,2.53,1.76,4.1,2.28,1.57,.52,3.28,.79,5.13,.79,2.57,0,4.77-.44,6.6-1.32,1.83-.88,3.41-2.06,4.74-3.53v3.99Zm47.92-19.25c0,2.62-.76,4.73-2.27,6.35-1.52,1.62-3.38,2.43-5.61,2.43-1.09,0-2.11-.21-3.05-.64-.95-.43-1.77-1.03-2.48-1.82s-1.27-1.71-1.67-2.78c-.4-1.07-.6-2.25-.6-3.53v-.14c0-1.28,.2-2.45,.6-3.49,.4-1.04,.96-1.96,1.67-2.74,.71-.79,1.54-1.39,2.48-1.82,.95-.43,1.96-.64,3.05-.64,2.22,0,4.09,.81,5.61,2.42,1.51,1.62,2.27,3.71,2.27,6.28v.14Zm11.95,8.38c.92-2.5,1.39-5.31,1.39-8.45v-.14c0-3.09-.46-5.87-1.39-8.34-.92-2.47-2.17-4.56-3.74-6.28-1.56-1.71-3.38-3.03-5.44-3.96-2.06-.93-4.23-1.39-6.51-1.39-1.42,0-2.71,.17-3.88,.5-1.16,.33-2.2,.77-3.13,1.32-.92,.55-1.77,1.18-2.53,1.89-.76,.71-1.47,1.47-2.13,2.28v-5.13h-13.62v52.61c3.21-3.23,7.63-5.23,12.52-5.23,.38,0,.73,.09,1.1,.11v-13.62c.62,.71,1.3,1.41,2.06,2.1,.76,.69,1.61,1.28,2.56,1.78,.95,.5,2,.9,3.16,1.21,1.16,.31,2.48,.46,3.95,.46,2.28,0,4.44-.46,6.51-1.39,2.06-.93,3.86-2.26,5.41-3.99,1.54-1.74,2.78-3.85,3.7-6.35m30.48-11.59h-13.41c.38-2.14,1.14-3.84,2.28-5.1,1.14-1.26,2.61-1.89,4.42-1.89s3.38,.63,4.56,1.89c1.19,1.26,1.9,2.96,2.14,5.1m12.69,5.49v-1.35c0-2.85-.39-5.55-1.18-8.09-.78-2.54-1.97-4.78-3.57-6.7-1.59-1.93-3.61-3.46-6.06-4.6-2.45-1.14-5.34-1.71-8.66-1.71-2.85,0-5.47,.52-7.84,1.57-2.38,1.05-4.43,2.49-6.17,4.31-1.74,1.83-3.08,3.97-4.03,6.42-.95,2.45-1.43,5.07-1.43,7.88v.14c0,2.99,.51,5.73,1.53,8.2,1.02,2.47,2.45,4.58,4.28,6.31,1.83,1.74,4.01,3.09,6.52,4.06,2.52,.97,5.3,1.46,8.34,1.46,3.85,0,7.14-.71,9.88-2.14,2.73-1.43,5.03-3.33,6.88-5.7l-7.49-6.2c-1.38,1.38-2.75,2.38-4.1,2.99-1.35,.62-2.84,.93-4.46,.93-2.14,0-3.93-.52-5.38-1.57-1.45-1.04-2.44-2.64-2.96-4.78h25.82c.05-.47,.07-.95,.07-1.43"/><path class="o" d="M259.76,112.81c0,2.05-.71,3.75-2.12,5.12-1.41,1.36-3.21,2.05-5.39,2.05s-4.05-.67-5.46-2.01c-1.41-1.34-2.12-3.04-2.12-5.08v-.14c0-2.05,.71-3.75,2.12-5.12,1.41-1.36,3.23-2.05,5.46-2.05s3.98,.67,5.39,2.01c1.41,1.34,2.12,3.04,2.12,5.08v.14Zm11.6,20.23c.77-2.39,1.16-5.29,1.16-8.7v-28.05h-12.97v4.37c-1.41-1.46-3-2.68-4.78-3.68-1.77-1-4.05-1.5-6.82-1.5-2.14,0-4.18,.4-6.11,1.19-1.93,.8-3.63,1.94-5.08,3.41-1.46,1.48-2.62,3.29-3.48,5.43-.87,2.14-1.3,4.53-1.3,7.17v.14c0,2.64,.43,5.02,1.3,7.13,.86,2.11,2.04,3.91,3.51,5.39,1.48,1.48,3.21,2.62,5.19,3.41,1.98,.8,4.1,1.19,6.38,1.19,2.73,0,4.98-.55,6.76-1.64,1.77-1.09,3.32-2.39,4.64-3.89v1.43c0,2.96-.8,5.21-2.39,6.75-1.59,1.55-4.03,2.32-7.3,2.32-2.5,0-4.78-.31-6.82-.92-2.05-.61-4.07-1.47-6.07-2.56l-4.16,8.6c2.68,1.36,5.54,2.41,8.56,3.14,3.02,.73,6.33,1.09,9.93,1.09,3.87,0,7.12-.44,9.76-1.33,2.64-.89,4.8-2.17,6.48-3.86,1.64-1.64,2.84-3.65,3.62-6.04m26.34-13.2c0,1.87-.59,3.34-1.77,4.43-1.18,1.09-2.73,1.64-4.64,1.64-1.32,0-2.41-.35-3.27-1.06-.87-.7-1.3-1.69-1.3-2.97v-.14c0-1.36,.51-2.47,1.54-3.31,1.02-.84,2.49-1.26,4.4-1.26,.96,0,1.88,.09,2.76,.27,.89,.18,1.65,.41,2.29,.68v1.71Zm-.21,13.37h12.83v-21.22c0-2.59-.31-4.86-.92-6.79-.61-1.93-1.63-3.58-3.04-4.95-1.46-1.45-3.33-2.57-5.63-3.34-2.3-.77-5.11-1.16-8.43-1.16s-5.95,.26-8.29,.79c-2.34,.52-4.56,1.22-6.65,2.08l2.66,9.14c1.64-.64,3.25-1.14,4.85-1.5,1.59-.36,3.37-.55,5.32-.55,2.5,0,4.36,.52,5.56,1.57,1.2,1.05,1.81,2.52,1.81,4.43v.61c-1.05-.36-2.35-.69-3.92-.99-1.57-.29-3.22-.44-4.95-.44-2.18,0-4.16,.25-5.94,.75-1.77,.5-3.29,1.23-4.54,2.18-1.25,.96-2.23,2.16-2.94,3.62-.71,1.46-1.06,3.14-1.06,5.05v.14c0,1.87,.32,3.5,.95,4.91,.64,1.41,1.51,2.59,2.63,3.55,1.11,.96,2.42,1.68,3.92,2.18,1.5,.5,3.14,.75,4.91,.75,2.46,0,4.56-.42,6.31-1.26,1.75-.84,3.26-1.97,4.54-3.38v3.82Zm28.73-18.56c0-1.23,.2-2.35,.61-3.38,.41-1.02,.95-1.9,1.63-2.63,.68-.73,1.47-1.3,2.38-1.71,.91-.41,1.88-.61,2.92-.61s2.01,.2,2.92,.61c.91,.41,1.7,.99,2.38,1.74,.68,.75,1.21,1.63,1.6,2.63,.39,1,.58,2.12,.58,3.34v.14c0,1.23-.19,2.35-.58,3.38-.38,1.02-.92,1.91-1.6,2.66-.68,.75-1.47,1.33-2.38,1.74-.91,.41-1.88,.61-2.92,.61s-2.02-.2-2.92-.61c-.91-.41-1.7-.99-2.38-1.74-.68-.75-1.22-1.64-1.63-2.66-.41-1.02-.61-2.15-.61-3.38v-.14Zm-2.69-17.84c-1.95,.89-3.68,2.16-5.17,3.82-1.5,1.66-2.68,3.69-3.54,6.07-.86,2.39-1.29,5.08-1.29,8.09v.14c0,2.96,.44,5.62,1.33,7.98,.89,2.37,2.07,4.37,3.55,6,1.48,1.64,3.21,2.9,5.19,3.79,1.98,.89,4.06,1.33,6.24,1.33,2.77,0,5.03-.57,6.76-1.71,1.73-1.14,3.23-2.48,4.5-4.03l-.07,4.91h13.03v-51.01c-3.17,3.72-7.8,6.12-13.03,6.25v12.35c-1.23-1.41-2.72-2.65-4.49-3.72-1.77-1.07-4.04-1.6-6.81-1.6-2.18,0-4.24,.44-6.19,1.33m62.53,16c0,2.05-.71,3.75-2.11,5.12-1.41,1.36-3.21,2.05-5.39,2.05s-4.05-.67-5.46-2.01c-1.41-1.34-2.12-3.04-2.12-5.08v-.14c0-2.05,.7-3.75,2.12-5.12,1.41-1.36,3.23-2.05,5.46-2.05s3.98,.67,5.39,2.01c1.41,1.34,2.11,3.04,2.11,5.08v.14Zm11.6,20.23c.77-2.39,1.16-5.29,1.16-8.7v-28.05h-12.97v4.37c-1.41-1.46-3-2.68-4.78-3.68-1.77-1-4.05-1.5-6.82-1.5-2.14,0-4.18,.4-6.11,1.19-1.93,.8-3.63,1.94-5.08,3.41-1.46,1.48-2.62,3.29-3.48,5.43-.86,2.14-1.3,4.53-1.3,7.17v.14c0,2.64,.43,5.02,1.3,7.13,.86,2.11,2.04,3.91,3.51,5.39,1.48,1.48,3.21,2.62,5.19,3.41,1.98,.8,4.11,1.19,6.38,1.19,2.73,0,4.98-.55,6.76-1.64,1.77-1.09,3.32-2.39,4.64-3.89v1.43c0,2.96-.8,5.21-2.39,6.75-1.59,1.55-4.03,2.32-7.3,2.32-2.5,0-4.78-.31-6.82-.92-2.05-.61-4.07-1.47-6.07-2.56l-4.16,8.6c2.68,1.36,5.54,2.41,8.56,3.14,3.02,.73,6.33,1.09,9.93,1.09,3.87,0,7.12-.44,9.76-1.33,2.64-.89,4.8-2.17,6.48-3.86,1.64-1.64,2.84-3.65,3.62-6.04m30.37-21.32h-12.83c.36-2.05,1.09-3.67,2.18-4.88,1.09-1.21,2.5-1.81,4.23-1.81s3.23,.6,4.37,1.81c1.14,1.21,1.82,2.83,2.05,4.88m12.08,6.62c.05-.45,.07-.91,.07-1.36v-1.3c0-2.73-.38-5.31-1.13-7.75-.75-2.43-1.89-4.57-3.41-6.42-1.52-1.84-3.46-3.31-5.8-4.4-2.34-1.09-5.11-1.64-8.29-1.64-2.73,0-5.23,.5-7.51,1.5-2.27,1-4.24,2.38-5.9,4.13-1.66,1.75-2.95,3.8-3.86,6.14-.91,2.34-1.36,4.86-1.36,7.54v.14c0,2.87,.49,5.48,1.47,7.85,.98,2.37,2.34,4.38,4.09,6.04,1.75,1.66,3.83,2.96,6.24,3.89,2.41,.93,5.07,1.4,7.98,1.4,3.69,0,6.83-.68,9.45-2.05,2.61-1.36,4.81-3.18,6.58-5.46l-7.17-5.94c-1.32,1.32-2.63,2.27-3.92,2.87-1.3,.59-2.72,.89-4.27,.89-2.05,0-3.76-.5-5.15-1.5-1.39-1-2.33-2.52-2.83-4.57h24.7Zm19.52-11.6h8.6v-10.44h-8.6v-9.35h-13.03v9.35h-4.37v10.44h4.37v15.01c0,4.41,1.1,7.55,3.29,9.42,2.19,1.86,5.26,2.8,9.19,2.8,1.82,0,3.48-.19,4.99-.58,1.5-.39,2.84-.9,4.03-1.54v-10.17c-.77,.36-1.57,.66-2.39,.89-.82,.23-1.66,.34-2.52,.34-1.18,0-2.07-.28-2.66-.85-.59-.57-.89-1.51-.89-2.83v-12.49Zm23.41-.21v-.14c0-.5,.25-.92,.75-1.26,.5-.34,1.25-.51,2.25-.51,1.45,0,3.16,.31,5.12,.92,1.96,.61,3.89,1.44,5.8,2.49l4.44-8.19c-2.14-1.36-4.53-2.42-7.17-3.17-2.64-.75-5.32-1.12-8.05-1.12-2.14,0-4.11,.27-5.9,.82-1.8,.55-3.36,1.33-4.67,2.36-1.32,1.02-2.35,2.3-3.11,3.82-.75,1.53-1.13,3.26-1.13,5.22v.14c0,1.87,.34,3.43,1.02,4.71,.68,1.28,1.61,2.35,2.8,3.24,1.18,.89,2.57,1.64,4.16,2.25,1.59,.61,3.3,1.15,5.12,1.6,1.95,.55,3.43,1.02,4.44,1.43,1,.41,1.5,.98,1.5,1.71v.14c0,1.32-1.09,1.98-3.28,1.98-1.91,0-3.97-.35-6.18-1.06-2.21-.71-4.38-1.76-6.52-3.17l-4.85,7.85c2.59,1.87,5.37,3.24,8.33,4.13,2.96,.89,6.01,1.33,9.14,1.33,2.23,0,4.28-.26,6.14-.78,1.86-.52,3.46-1.31,4.78-2.35,1.32-1.05,2.34-2.33,3.07-3.86,.73-1.52,1.09-3.31,1.09-5.36v-.14c0-1.77-.34-3.3-1.02-4.57-.68-1.27-1.62-2.35-2.8-3.24-1.18-.89-2.57-1.64-4.16-2.25-1.59-.61-3.3-1.17-5.12-1.67-1.96-.59-3.45-1.1-4.47-1.54-1.02-.43-1.53-1.01-1.53-1.74"/><rect class="n" x="7.43" y="5.25" width="504.83" height="202.54"/><g class="p"><rect class="m" x="220.59" y="142.69" width="291.67" height="50.42"/></g><path class="o" d="M468.46,173.99c0-.41,.09-.83,.27-1.25,.18-.42,.43-.8,.76-1.15,.33-.34,.73-.62,1.2-.84,.47-.21,.99-.32,1.56-.32s1.1,.09,1.53,.27c.44,.18,.8,.43,1.1,.75,.29,.32,.51,.69,.66,1.12,.15,.43,.23,.9,.24,1.42h-7.32Zm9.8,1.86v-.82c0-.79-.11-1.57-.32-2.33s-.56-1.45-1.04-2.06c-.48-.61-1.1-1.1-1.84-1.48-.75-.38-1.66-.57-2.75-.57-.91,0-1.75,.16-2.53,.49-.77,.33-1.44,.78-2,1.35-.56,.58-1,1.26-1.31,2.04-.32,.78-.48,1.63-.48,2.54s.15,1.76,.44,2.54c.29,.78,.71,1.46,1.25,2.04,.54,.58,1.2,1.03,1.99,1.35,.78,.33,1.65,.49,2.62,.49,2.32,0,4.12-.83,5.41-2.5l-1.75-1.34c-.45,.55-.94,.99-1.47,1.33-.53,.34-1.16,.5-1.88,.5-.53,0-1.05-.09-1.55-.26-.5-.17-.94-.41-1.32-.72-.38-.31-.68-.68-.92-1.12-.23-.44-.35-.92-.35-1.46h9.8Zm-19.1,5.26h2.32v-19.49h-2.32v19.49Zm-11.01,.08l-.75,1.93c-.12,.31-.24,.58-.36,.83-.12,.24-.27,.45-.45,.63-.18,.18-.39,.32-.64,.41-.25,.09-.55,.14-.91,.14-.46,0-.92-.09-1.38-.28l-.28,2.11c.32,.14,.66,.23,1.01,.27,.35,.04,.7,.06,1.04,.06,.63,0,1.17-.09,1.61-.26,.44-.17,.81-.41,1.12-.72,.31-.31,.57-.68,.79-1.12,.22-.44,.44-.92,.64-1.46l5.8-14.85h-2.47l-3.47,9.54h-.05l-3.62-9.54h-2.68l5.06,12.3Zm-8.15-12.3h-3.33v-3.43h-2.32v3.43h-2.68v2.01h2.68v6.37c0,.5,.02,.99,.06,1.48,.04,.49,.18,.93,.41,1.33,.23,.4,.59,.72,1.08,.97,.49,.25,1.18,.37,2.08,.37,.24,0,.58-.03,1.02-.09,.44-.06,.79-.17,1.07-.32v-2.11c-.24,.14-.51,.23-.8,.28-.29,.05-.58,.08-.85,.08-.45,0-.79-.08-1.02-.25-.23-.16-.4-.38-.52-.64-.11-.27-.18-.57-.19-.9-.02-.34-.03-.67-.03-1.02v-5.54h3.33v-2.01Zm-11.24,1.7c-.45-.72-1.05-1.24-1.8-1.55-.76-.31-1.55-.46-2.37-.46-.57,0-1.13,.08-1.69,.23-.56,.16-1.06,.39-1.5,.7-.44,.31-.79,.7-1.06,1.17-.27,.47-.4,1.03-.4,1.66,0,.58,.1,1.07,.31,1.47,.21,.4,.48,.72,.82,.98,.34,.26,.74,.46,1.19,.62,.45,.15,.92,.29,1.42,.41,.26,.05,.55,.12,.89,.19,.33,.08,.65,.18,.95,.31,.3,.13,.56,.31,.77,.53,.21,.22,.32,.51,.32,.85,0,.26-.07,.49-.22,.68-.15,.2-.33,.36-.57,.49s-.5,.22-.8,.28c-.3,.06-.6,.09-.89,.09-.67,0-1.24-.15-1.7-.44-.46-.29-.89-.63-1.26-1.01l-1.75,1.44c.6,.82,1.29,1.39,2.05,1.7,.76,.31,1.65,.46,2.67,.46,.6,0,1.2-.07,1.79-.21,.59-.14,1.12-.36,1.58-.67,.46-.31,.84-.71,1.14-1.2,.29-.49,.44-1.08,.44-1.77,0-.57-.09-1.05-.27-1.44-.18-.4-.43-.73-.75-1.01-.32-.28-.7-.5-1.13-.67-.44-.17-.91-.32-1.4-.44-.26-.05-.57-.11-.93-.18-.36-.07-.7-.17-1.02-.31-.32-.14-.59-.32-.83-.54-.23-.22-.35-.52-.35-.88,0-.45,.2-.79,.61-1.02,.4-.23,.88-.35,1.43-.35,.58,0,1.08,.12,1.48,.35,.4,.23,.74,.52,1.02,.86l1.8-1.37Zm-22.43,3.4c0-.41,.09-.83,.27-1.25,.18-.42,.43-.8,.76-1.15,.33-.34,.73-.62,1.2-.84,.47-.21,.99-.32,1.56-.32s1.1,.09,1.53,.27c.44,.18,.8,.43,1.1,.75,.29,.32,.51,.69,.66,1.12s.23,.9,.24,1.42h-7.32Zm9.8,1.86v-.82c0-.79-.11-1.57-.32-2.33-.21-.76-.56-1.45-1.04-2.06-.48-.61-1.1-1.1-1.84-1.48-.75-.38-1.66-.57-2.75-.57-.91,0-1.75,.16-2.53,.49-.77,.33-1.44,.78-2,1.35-.56,.58-1,1.26-1.31,2.04-.32,.78-.48,1.63-.48,2.54s.14,1.76,.44,2.54c.29,.78,.71,1.46,1.25,2.04,.54,.58,1.2,1.03,1.98,1.35,.78,.33,1.65,.49,2.62,.49,2.32,0,4.12-.83,5.41-2.5l-1.75-1.34c-.45,.55-.94,.99-1.47,1.33-.53,.34-1.16,.5-1.88,.5-.53,0-1.05-.09-1.55-.26-.5-.17-.94-.41-1.32-.72-.38-.31-.68-.68-.91-1.12-.23-.44-.35-.92-.35-1.46h9.8Zm-20.78,5.26h2.32v-10.21h2.79v-2.01h-2.76v-2.81c0-.43,.02-.81,.07-1.15,.04-.34,.14-.62,.28-.86,.15-.24,.35-.42,.61-.55,.26-.13,.6-.19,1.03-.19,.24,0,.46,.02,.67,.05,.21,.03,.42,.1,.64,.18l.26-2.06c-.33-.09-.63-.14-.92-.15-.28-.02-.55-.03-.81-.03-1.53,0-2.61,.4-3.24,1.2-.63,.8-.94,2.02-.94,3.65v2.73h-2.63v2.01h2.63v10.21Zm-8.49-15.4c.34,.33,.74,.5,1.2,.5s.86-.17,1.2-.5,.5-.73,.5-1.2-.17-.86-.5-1.2c-.33-.34-.74-.5-1.2-.5s-.86,.17-1.2,.5c-.33,.33-.5,.73-.5,1.2s.17,.86,.5,1.2m.04,15.4h2.32v-12.22h-2.32v12.22Zm-7.73,0h2.32v-19.49h-2.32v19.49Zm-25.42,0h2.86l3.61-5.13,3.61,5.13h2.99l-4.95-6.52,4.18-5.7h-2.81l-2.91,4.33-2.96-4.33h-2.99l4.33,5.7-4.95,6.52Zm-11.81-10.52c-.45-.72-1.05-1.24-1.8-1.55-.76-.31-1.55-.46-2.37-.46-.57,0-1.13,.08-1.69,.23-.56,.16-1.06,.39-1.5,.7-.44,.31-.79,.7-1.06,1.17-.27,.47-.4,1.03-.4,1.66,0,.58,.1,1.07,.31,1.47,.21,.4,.48,.72,.83,.98,.34,.26,.74,.46,1.19,.62,.45,.15,.92,.29,1.42,.41,.26,.05,.55,.12,.89,.19,.33,.08,.65,.18,.95,.31,.3,.13,.56,.31,.77,.53,.21,.22,.32,.51,.32,.85,0,.26-.07,.49-.22,.68-.15,.2-.33,.36-.57,.49s-.5,.22-.8,.28c-.3,.06-.6,.09-.89,.09-.67,0-1.24-.15-1.7-.44-.46-.29-.89-.63-1.26-1.01l-1.75,1.44c.6,.82,1.29,1.39,2.05,1.7,.76,.31,1.65,.46,2.67,.46,.6,0,1.2-.07,1.79-.21,.59-.14,1.12-.36,1.58-.67,.46-.31,.84-.71,1.14-1.2,.29-.49,.44-1.08,.44-1.77,0-.57-.09-1.05-.27-1.44-.18-.4-.43-.73-.75-1.01-.32-.28-.7-.5-1.14-.67-.44-.17-.91-.32-1.4-.44-.26-.05-.57-.11-.93-.18-.36-.07-.7-.17-1.02-.31-.32-.14-.59-.32-.82-.54-.23-.22-.35-.52-.35-.88,0-.45,.2-.79,.61-1.02,.4-.23,.88-.35,1.43-.35,.58,0,1.08,.12,1.48,.35,.4,.23,.74,.52,1.02,.86l1.8-1.37Zm-22.43,3.4c0-.41,.09-.83,.27-1.25,.18-.42,.43-.8,.76-1.15,.33-.34,.73-.62,1.2-.84,.47-.21,.99-.32,1.56-.32s1.1,.09,1.53,.27c.44,.18,.8,.43,1.1,.75,.29,.32,.51,.69,.66,1.12s.23,.9,.24,1.42h-7.32Zm9.8,1.86v-.82c0-.79-.11-1.57-.32-2.33s-.56-1.45-1.04-2.06c-.48-.61-1.1-1.1-1.84-1.48-.75-.38-1.66-.57-2.75-.57-.91,0-1.75,.16-2.53,.49-.77,.33-1.44,.78-2,1.35-.56,.58-1,1.26-1.32,2.04-.32,.78-.48,1.63-.48,2.54s.14,1.76,.44,2.54c.29,.78,.71,1.46,1.25,2.04,.54,.58,1.2,1.03,1.99,1.35,.78,.33,1.65,.49,2.62,.49,2.32,0,4.13-.83,5.41-2.5l-1.75-1.34c-.45,.55-.94,.99-1.47,1.33-.53,.34-1.16,.5-1.88,.5-.53,0-1.05-.09-1.55-.26-.5-.17-.94-.41-1.31-.72-.38-.31-.68-.68-.92-1.12-.23-.44-.35-.92-.35-1.46h9.8Zm-15.03-5.31c-.6-.65-1.31-1.14-2.13-1.46-.82-.32-1.67-.48-2.57-.48-.96,0-1.83,.16-2.62,.48-.78,.32-1.45,.76-2.01,1.33-.56,.57-.99,1.25-1.3,2.04-.31,.79-.46,1.66-.46,2.6s.15,1.81,.46,2.59c.31,.78,.75,1.45,1.32,2.01,.57,.56,1.24,.99,2.02,1.3,.78,.31,1.65,.46,2.59,.46,.89,0,1.74-.15,2.54-.44,.8-.29,1.5-.77,2.1-1.44l-1.65-1.65c-.4,.45-.82,.79-1.29,1.02-.47,.23-1.02,.35-1.68,.35-.6,0-1.14-.11-1.62-.32-.48-.22-.89-.51-1.24-.89-.34-.38-.61-.82-.8-1.33s-.28-1.04-.28-1.61,.08-1.11,.24-1.64c.16-.52,.4-.99,.72-1.39,.32-.4,.71-.72,1.19-.95,.47-.23,1.03-.35,1.66-.35s1.22,.12,1.69,.35c.47,.23,.92,.57,1.35,1.02l1.75-1.6Zm-18.08-4.83c.33,.33,.73,.5,1.2,.5s.86-.17,1.2-.5,.5-.73,.5-1.2-.17-.86-.5-1.2c-.33-.34-.73-.5-1.2-.5s-.86,.17-1.2,.5c-.34,.33-.5,.73-.5,1.2s.17,.86,.5,1.2m.04,15.4h2.32v-12.22h-2.32v12.22Zm-11.11,0h2.55l4.8-12.22h-2.48l-3.51,9.36-3.66-9.36h-2.68l4.98,12.22Zm-17.63-7.11c0-.41,.09-.83,.27-1.25,.18-.42,.43-.8,.76-1.15,.33-.34,.73-.62,1.2-.84,.47-.21,.99-.32,1.56-.32s1.1,.09,1.53,.27c.44,.18,.8,.43,1.1,.75,.29,.32,.51,.69,.66,1.12s.23,.9,.24,1.42h-7.32Zm9.8,1.86v-.82c0-.79-.11-1.57-.32-2.33-.22-.76-.56-1.45-1.04-2.06-.48-.61-1.1-1.1-1.84-1.48-.75-.38-1.66-.57-2.75-.57-.91,0-1.75,.16-2.53,.49-.77,.33-1.44,.78-2,1.35-.56,.58-1,1.26-1.32,2.04-.32,.78-.48,1.63-.48,2.54s.15,1.76,.44,2.54,.71,1.46,1.25,2.04c.54,.58,1.2,1.03,1.98,1.35,.78,.33,1.65,.49,2.62,.49,2.32,0,4.12-.83,5.41-2.5l-1.75-1.34c-.45,.55-.94,.99-1.47,1.33-.53,.34-1.16,.5-1.88,.5-.53,0-1.05-.09-1.55-.26-.5-.17-.94-.41-1.31-.72-.38-.31-.68-.68-.92-1.12-.23-.44-.35-.92-.35-1.46h9.8Zm-24.62,3.08c-.5-.22-.92-.51-1.26-.88-.34-.37-.61-.82-.8-1.34-.19-.52-.28-1.1-.28-1.72s.09-1.19,.28-1.71c.19-.52,.46-.97,.8-1.34,.34-.37,.76-.66,1.26-.88,.5-.22,1.06-.32,1.68-.32s1.18,.11,1.68,.32c.5,.22,.92,.51,1.26,.88,.34,.37,.61,.82,.8,1.34,.19,.52,.28,1.1,.28,1.71s-.1,1.19-.28,1.72c-.19,.52-.46,.97-.8,1.34-.34,.37-.76,.66-1.26,.88-.5,.22-1.06,.32-1.68,.32s-1.18-.11-1.68-.32m8.02-17.31h-2.32v9.02h-.05c-.41-.64-1.01-1.14-1.78-1.51-.77-.37-1.6-.55-2.48-.55-.95,0-1.8,.16-2.57,.49-.76,.33-1.42,.78-1.96,1.35-.54,.58-.96,1.26-1.25,2.04-.29,.78-.44,1.63-.44,2.54s.15,1.75,.44,2.53c.29,.77,.71,1.45,1.25,2.04,.54,.58,1.19,1.04,1.96,1.37s1.62,.49,2.57,.49c.82,0,1.63-.18,2.41-.54s1.4-.87,1.84-1.52h.05v1.75h2.32v-19.49Z"/><rect class="n" x="7.43" y="5.25" width="504.83" height="202.54"/><g class="r"><rect class="j" x="-15.51" y="-11.96" width="182.58" height="202.56" transform="translate(-24.21 28.31) rotate(-18.3)"/></g><g class="q"><rect class="k" x="54.31" y="20.52" width="177.89" height="165.38" transform="translate(-22.05 41.17) rotate(-15.2)"/></g><g class="s"><rect class="l" x="100.68" y="115.07" width="129.14" height="116.78" transform="translate(-67.42 116.36) rotate(-32.6)"/></g></svg>